<svg width="149" height="28" viewBox="0 0 149 28" fill="none" xmlns="http://www.w3.org/2000/svg">
    <rect width="27.869" height="27.869" rx="2.31499" fill="#FCFCFC" />
    <path
        d="M12.1794 11.5094C13.7061 11.5094 15.2327 11.5109 16.7591 11.5067C16.8776 11.5064 16.9096 11.5346 16.9078 11.6538C16.9005 12.139 16.902 12.6245 16.9072 13.1099C16.9084 13.2094 16.8815 13.2374 16.7808 13.2361C16.3279 13.2307 15.875 13.2389 15.4221 13.2304C15.3014 13.228 15.2688 13.2677 15.2651 13.3775C15.2407 14.089 15.204 14.7999 15.1869 15.5115C15.1649 16.4205 15.1576 17.3295 15.1445 18.2386C15.1435 18.2938 15.1478 18.3496 15.1527 18.4048C15.2025 18.9425 15.5952 19.2274 16.13 19.1136C16.1547 19.1084 16.1788 19.1 16.2036 19.0942C16.4622 19.0326 16.4598 19.0332 16.4998 19.2878C16.5648 19.7016 16.6314 20.1152 16.7026 20.5281C16.7166 20.6091 16.7133 20.654 16.6232 20.6871C15.8841 20.9572 15.1399 20.9641 14.3993 20.7117C13.7613 20.4941 13.4535 19.9829 13.2672 19.3794C13.0898 18.8044 13.1038 18.2119 13.1148 17.6211C13.139 16.3131 13.1817 15.0054 13.1799 13.6967C13.1799 13.5757 13.182 13.4543 13.1909 13.3335C13.1967 13.2525 13.1667 13.2322 13.088 13.2325C12.1617 13.2349 11.2358 13.2364 10.3095 13.2313C10.1864 13.2307 10.2136 13.3002 10.2127 13.3663C10.2014 14.2098 10.1974 15.0536 10.1779 15.8971C10.1504 17.0831 10.1031 18.2686 10.0331 19.4531C10.0093 19.8564 9.98487 20.2596 9.96441 20.6628C9.95952 20.7599 9.9357 20.7994 9.82209 20.7912C9.17863 20.7457 8.53456 20.7077 7.89018 20.6738C7.78879 20.6683 7.79154 20.6222 7.79887 20.5491C7.85415 20.0014 7.90881 19.4537 7.96042 18.9058C8.05143 17.9351 8.10396 16.9621 8.14122 15.9884C8.1745 15.1204 8.19771 14.252 8.20107 13.3833C8.20168 13.2519 8.16351 13.2292 8.04135 13.231C7.51211 13.238 6.98286 13.2313 6.45362 13.2365C6.35284 13.2374 6.32597 13.2097 6.32719 13.1102C6.33238 12.6451 6.33268 12.18 6.32719 11.7148C6.32597 11.6199 6.35559 11.6029 6.44415 11.5941C7.70237 11.4694 8.96455 11.5179 10.2252 11.5106C10.8766 11.507 11.528 11.51 12.1794 11.51V11.5094ZM21.7547 10.773C22.0115 10.5282 22.2595 10.2742 22.4867 10.0017C22.753 9.68255 22.997 9.34758 23.1772 8.97134C23.7186 7.84203 23.2361 6.5513 22.0714 6.13501C20.8174 5.68687 19.6026 5.99908 18.6665 6.95545C18.6015 7.0219 18.6501 7.04678 18.6879 7.0844C18.8892 7.28466 19.0904 7.48491 19.2917 7.68516C19.3986 7.79136 19.5081 7.79581 19.6203 7.69851C20.0149 7.35899 20.4403 7.1111 20.9958 7.16814C21.4963 7.21972 21.8124 7.49189 21.89 7.9819C21.9394 8.29412 21.857 8.58236 21.7101 8.85483C21.4991 9.24593 21.2071 9.57605 20.8974 9.89039C20.2528 10.5445 19.5482 11.1329 18.8455 11.723C18.731 11.8192 18.6705 11.913 18.6824 12.0662C18.6965 12.247 18.6916 12.43 18.6837 12.6117C18.6788 12.7185 18.6992 12.7789 18.822 12.7537C18.8415 12.7498 18.8626 12.7531 18.8831 12.7531C20.4549 12.7531 22.0268 12.7534 23.5986 12.7516C23.657 12.7516 23.7443 12.7956 23.7422 12.6654C23.7361 12.2865 23.7385 11.9075 23.7412 11.5282C23.7416 11.4636 23.7251 11.4411 23.6567 11.4417C22.9906 11.4478 22.3242 11.4463 21.6582 11.4572C21.4313 11.4612 21.2047 11.4948 20.9579 11.5167C21.2386 11.2548 21.4991 11.0158 21.755 10.7721L21.7547 10.773Z"
        fill="#0E0F0F" />
    <path
        d="M42.0776 21.4345H39.603V6.08282H46.1331C49.341 6.08282 51.701 7.9846 51.701 11.2841C51.701 14.5835 49.341 16.4853 46.1331 16.4853H42.0776V21.4345ZM46.431 8.30538H42.0776V14.2628H46.431C48.4474 14.2628 49.2493 13.4837 49.2493 11.2841C49.2493 9.08442 48.4474 8.30538 46.431 8.30538ZM55.7663 8.60325H53.3146L53.2917 6.08282H55.7663V8.60325ZM55.7892 21.4345H53.3146V9.97803H55.7892V21.4345ZM68.6582 21.6636C64.236 21.6636 62.3113 19.6244 62.3113 16.6686V16.2791H64.7401V16.5311C64.7401 18.4329 65.542 19.3953 68.7499 19.3953C71.0182 19.3953 71.8431 18.7766 71.8431 17.356C71.8431 15.9583 71.3848 15.4542 69.0248 14.9731L66.4127 14.4461C63.7777 13.942 62.3571 12.6588 62.3571 10.2301C62.3571 7.96169 64.1214 5.85369 68.0854 5.85369C72.3243 5.85369 74.0198 8.23664 74.0198 10.9633V11.2382H71.5911V10.9862C71.5911 9.10733 70.7662 8.12208 68.0166 8.12208C65.7483 8.12208 64.8317 8.76364 64.8317 10.1155C64.8317 11.5132 65.4504 11.9027 67.5584 12.361L70.1705 12.9109C73.0575 13.5066 74.3177 14.9501 74.3177 17.2643C74.3177 19.6702 72.5763 21.6636 68.6582 21.6636ZM80.4734 21.6636C77.2885 21.6636 75.6159 19.3494 75.6159 15.7521C75.6159 12.1318 77.3572 9.81764 80.5651 9.81764C82.5356 9.81764 83.8416 10.5967 84.3915 11.9256H84.4832V10.0468H86.7516V25.3985H84.2999V19.6702H84.2311C83.7271 20.7013 82.4439 21.6636 80.4734 21.6636ZM78.0905 15.7521C78.0905 18.5475 79.007 19.5556 81.1837 19.5556C83.2001 19.5556 84.2999 18.662 84.2999 16.7603V14.721C84.2999 12.8192 83.2001 11.9256 81.1837 11.9256C78.9841 11.9256 78.0905 12.9338 78.0905 15.7521ZM93.4253 21.6636C90.4466 21.6636 89.1177 19.6702 89.1177 17.081V10.0468H91.5923V16.6457C91.5923 18.685 92.3713 19.5327 94.3418 19.5327C96.2436 19.5327 97.3205 18.7079 97.3205 16.4624V10.0468H99.7951V21.4345H97.5038V19.1661H97.4122C96.8623 20.4722 95.6479 21.6636 93.4253 21.6636ZM105.303 21.6636C103.264 21.6636 101.683 20.6096 101.683 18.6162C101.683 16.7374 103.058 15.7521 105.486 15.4084L109.473 14.8127V14.194C109.473 12.4985 108.694 11.9944 106.907 11.9944C105.097 11.9944 104.386 12.5672 104.386 14.0794V14.4231H102.004V14.194C102.004 11.6507 103.997 9.81764 107.044 9.81764C110.229 9.81764 111.833 11.7423 111.833 14.5148V21.4345H109.542V19.6473H109.427C108.763 20.7242 107.457 21.6636 105.303 21.6636ZM104.089 18.4329C104.089 19.3265 104.661 19.6931 106.105 19.6931C107.709 19.6931 109.473 19.0516 109.473 16.7603V16.554L105.853 17.104C104.547 17.2873 104.089 17.5851 104.089 18.4329ZM116.677 21.4345H114.203V9.97803H116.471V11.7882H116.586C117.044 10.7342 118.098 9.81764 119.771 9.81764C122.154 9.81764 123.07 11.559 123.07 13.6899V14.4461H120.595V13.9878C120.595 12.4755 120.16 11.9256 118.717 11.9256C117.227 11.9256 116.677 12.4985 116.677 14.0107V21.4345ZM129.716 21.6636C125.958 21.6636 124.194 19.2807 124.194 15.7292C124.194 12.2006 126.302 9.81764 129.693 9.81764C132.763 9.81764 134.917 11.6507 134.917 14.7668C134.917 15.3626 134.849 15.9812 134.78 16.3249H126.508C126.6 18.41 127.356 19.464 129.739 19.464C131.641 19.464 132.374 18.8224 132.374 17.7913V17.608H134.826V17.8143C134.826 20.1514 132.786 21.6636 129.716 21.6636ZM129.647 11.9027C127.493 11.9027 126.669 12.9109 126.531 14.6752H132.557C132.649 12.7276 131.595 11.9027 129.647 11.9027ZM141.563 21.6636C138.31 21.6636 136.546 19.3494 136.546 15.7292C136.546 12.1318 138.287 9.81764 141.426 9.81764C143.442 9.81764 144.657 10.78 145.161 11.8111H145.23V6.08282H147.681V21.4345H145.413V19.5556H145.321C144.771 20.8617 143.511 21.6636 141.563 21.6636ZM139.02 15.7292C139.02 18.5475 139.914 19.5556 142.113 19.5556C144.13 19.5556 145.23 18.662 145.23 16.7603V14.721C145.23 12.8192 144.13 11.9256 142.113 11.9256C139.937 11.9256 139.02 12.9338 139.02 15.7292Z"
        fill="#FCFCFC" />
</svg>