<svg width="154" height="15" viewBox="0 0 154 15" fill="none" xmlns="http://www.w3.org/2000/svg">
<g clip-path="url(#clip0_30_448)">
<path d="M117.056 -0.00012207H109.86C107.094 -0.00012207 104.854 2.26887 104.854 5.07022V9.48645C104.854 12.2878 107.094 14.5568 109.86 14.5568H117.227V14.5493C119.912 14.458 122.062 12.2295 122.062 9.48646V5.07024C122.062 2.26887 119.822 -0.00012207 117.056 -0.00012207ZM116.28 12.1383H110.636V2.41844H116.28V12.1383ZM37.1179 -0.00012207H29.9218C27.1559 -0.00012207 24.9158 2.26887 24.9158 5.07022V9.48645C24.9158 12.2878 27.1559 14.5568 29.9218 14.5568H37.2881V14.5493C39.9739 14.458 42.1239 12.2295 42.1239 9.48646V5.07024C42.1239 2.26887 39.8837 -0.00012207 37.1179 -0.00012207ZM36.342 12.1383H30.6977V2.41844H36.342V12.1383ZM77.3936 2.53505H77.3962L73.2161 9.86674V-0.00012207H70.3202C68.5305 -0.00012207 66.8785 0.965782 65.9849 2.53505L59.9277 13.16L57.262 8.4851C59.1769 8.46228 60.7237 6.88287 60.7237 4.93838V3.54912C60.7237 1.58942 59.1543 -0.00012207 57.2195 -0.00012207H43.5156V14.5568H49.2975V8.48763H50.5891L54.0482 14.5568H61.8025L67.4342 4.67473V14.5568H73.2161V14.5518L78.8229 4.7153V14.5568H84.6048V-0.00012207H81.7289C79.9392 -0.00012207 78.2872 0.965782 77.3936 2.53505ZM54.9418 6.06907H49.2975V2.41844H54.9418V6.06907ZM97.6451 -0.00012207H103.427V14.5568H97.6451V8.48763H92.0012V14.5568H86.2192V-0.00012207H92.0012V6.06909H97.6451V-0.00012207ZM129.271 12.1383H136.735V14.5568H128.495C125.729 14.5568 123.489 12.2878 123.489 9.48645V-0.00012207H129.271V12.1383ZM144.003 2.41842V6.06907H151.915V8.48763H144.003V12.1383H154V14.5568H138.221V-0.00012207H154V2.41844L144.003 2.41842ZM25.9946 -0.00012207L19.1413 12.0217C18.2478 13.5909 16.5958 14.5568 14.8062 14.5568H11.9102V4.68995L7.73018 12.0217C6.83662 13.5909 5.18463 14.5568 3.39498 14.5568H0.519043V-0.00012207H6.30348V9.84142L11.9102 0.0049384V-0.00012207H17.6921V9.88199L23.3239 -0.00012207H25.9946Z" fill="white"/>
</g>
<defs>
<clipPath id="clip0_30_448">
<rect width="153.481" height="14.557" fill="white" transform="translate(0.519043 -0.00012207)"/>
</clipPath>
</defs>
</svg>
